# xmcd CD database file generated by OrangeCD 6.4
#
# Track frame offsets:
#	150
#	11757
#	20720
#	30207
#	39169
#	57158
#	71394
#	87299
#	104249
#	116814
#	128930
#	142023
#	155114
#	167398
#	186879
#	198282
#	217785
#	239458
#	252521
#	263064
#
# Disc length: 3714 seconds
#
# Revision: 1
# Processed by: cddbd v1.5.2PL0 Copyright (c) Steve Scherf et al.
# Submitted via: OrangeCD 6.4
#
DISCID=190e8014
DTITLE=Various Artist - 100 Country Classics
DYEAR=1900
DGENRE=
TTITLE0=The Good, The Bad And The Ugly
TTITLE1=Rawhide 
TTITLE2=Bonanza 
TTITLE3=Wake Up Little Susie 
TTITLE4=I Can Help
TTITLE5=What's Your Mama's Name, Child
TTITLE6=Blanket On The Ground
TTITLE7=For The Good Times
TTITLE8=Tennessee Waltz
TTITLE9=Crazy
TTITLE10=Behind Closed Doors
TTITLE11=Honey Come back
TTITLE12=It's Four In The Morning
TTITLE13=Coward Of The County
TTITLE14=Sea Of Heartbreak
TTITLE15=El Paso
TTITLE16=Will The Circle Be Unbroken
TTITLE17=Hey, Good Lookin'
TTITLE18=Walk On By 
TTITLE19=Sing Me An Old Fashioned Song
EXTD=
EXTT0=
EXTT1=
EXTT2=
EXTT3=
EXTT4=
EXTT5=
EXTT6=
EXTT7=
EXTT8=
EXTT9=
EXTT10=
EXTT11=
EXTT12=
EXTT13=
EXTT14=
EXTT15=
EXTT16=
EXTT17=
EXTT18=
EXTT19=
PLAYORDER=
